. 
 
http://www.torrenting.com          :     Once & For all ;)


               www . Torrenting . Com 

(((((((((((((= Enjoy No RAR releases =))))))))))))))))))))


...................................NFO:....................................

.[IMG]http://img546.imageshack.us/img546/7452/footloose2011poster03.jpg[/IMG]

Complete name                    : Footloose.2011.DVDRip.x264.AC3-DTRG.mkv
Format                           : Matroska
Format version                   : Version 2
File size                        : 1.37 GiB
Duration                         : 1h 48mn
Overall bit rate                 : 1 800 Kbps
Encoded date                     : UTC 2012-02-04 12:10:28
Writing application              : mkvmerge v5.2.1 ('A Far Off Place') built on Jan  2 2012 23:21:10
Writing library                  : libebml v1.2.3 + libmatroska v1.3.0

Video
ID                               : 1
Format                           : AVC
Format/Info                      : Advanced Video Codec
Format profile                   : High@L4.1
Format settings, CABAC           : Yes
Format settings, ReFrames        : 4 frames
Muxing mode                      : Header stripping
Codec ID                         : V_MPEG4/ISO/AVC
Duration                         : 1h 48mn
Bit rate                         : 1 352 Kbps
Width                            : 720 pixels
Height                           : 304 pixels
Display aspect ratio             : 2.35:1
Frame rate                       : 25.000 fps
Color space                      : YUV
Chroma subsampling               : 4:2:0
Bit depth                        : 8 bits
Scan type                        : Progressive
Bits/(Pixel*Frame)               : 0.247
Stream size                      : 1 024 MiB (73%)
Writing library                  : x264 core 116 r2074 2641b9e
Language                         : English
Default                          : Yes
Forced                           : No
Source                           : LEGEND RG DVDR, cheers...

Audio
ID                               : 2
Format                           : AC-3
Format/Info                      : Audio Coding 3
Mode extension                   : CM (complete main)
Muxing mode                      : Header stripping
Codec ID                         : A_AC3
Duration                         : 1h 48mn
Bit rate mode                    : Constant
Bit rate                         : 448 Kbps
Channel(s)                       : 5 channels
Channel positions                : Front: L C R, Side: L R
Sampling rate                    : 48.0 KHz
Bit depth                        : 16 bits
Compression mode                 : Lossy
Delay relative to video          : 400ms
Stream size                      : 348 MiB (25%)
Default                          : Yes
Forced                           : No
Source                           : LEGEND RG DVDR, cheers...

iMDB: http://www.imdb.com/title/tt1068242/

Encoder: Kareemzos..

DTRG bringing the p2p world yet another release, Footloose 2011 DVDRip.......

straight forward encode tbh, sharpened, denoised, hsv levels, brightness etc etc.....
check the sample before downloading because the screens cant tell you the real Q of
the release, enjoy folks.....

[b][i][size=4]SCREENSHOTS:[/b][/i][/size]

[IMG]http://img856.imageshack.us/img856/7448/14725857.png[/IMG]
[IMG]http://img515.imageshack.us/img515/2294/27774612.png[/IMG]
[IMG]http://img7.imageshack.us/img7/6571/96215273.png[/IMG][/URL]
[IMG]http://img201.imageshack.us/img201/7673/99160752.png[/IMG]
[IMG]http://img38.imageshack.us/img38/1076/44281823.png[/IMG]
[IMG]http://img254.imageshack.us/img254/6959/32140496.png[/IMG]
[IMG]http://img213.imageshack.us/img213/6821/50294385.png[/IMG]
[IMG]http://img846.imageshack.us/img846/3958/89916872.png[/IMG]
[IMG]http://img96.imageshack.us/img96/4940/12860641.png[/IMG]

Greetz to EMBER, ETRG, BHRG, FYA, 26k, CreWSaDe, RemixHD, LEGiTiMATE.......and maybe many more...........